<?xml version="1.0" encoding="utf-8"?>
<!-- Generator: Adobe Illustrator 18.1.1, SVG Export Plug-In . SVG Version: 6.00 Build 0)  -->
<svg version="1.1" id="Layer_1" xmlns="http://www.w3.org/2000/svg" xmlns:xlink="http://www.w3.org/1999/xlink" x="0px" y="0px"
	 viewBox="0 0 311.9 311.9" enable-background="new 0 0 311.9 311.9" xml:space="preserve">
<g>
	<path fill="#363972" d="M155.9,0C70,0,0,70,0,155.9s70,155.9,155.9,155.9s155.9-70,155.9-155.9S241.9,0,155.9,0z M155.9,305.3
		c-82.4,0-149.4-67-149.4-149.4S73.6,6.6,155.9,6.6c82.4,0,149.4,67,149.4,149.4S238.3,305.3,155.9,305.3z"/>
	<path fill="#363972" d="M198.6,215.7L180.7,171c-0.1-0.4-0.1-0.8,0.2-1.1l26-26c0.2-0.2,0.3-0.4,0.3-0.7V98.8
		c0-0.3-0.1-0.5-0.3-0.7l-27.2-27.2c-0.2-0.2-0.4-0.3-0.7-0.3H134h-18.2H97.3c-0.5,0-1,0.4-1,1v2.5c0,1.7,1.4,3.1,3.1,3.1h13.2
		c1.7,0,3.1,1.4,3.1,3.1v83.6c0,0.5-0.4,1-1,1H97.3c-0.5,0-1,0.4-1,1v4.6c0,0.5,0.4,1,1,1h15.8c1.5,0,2.7,1.2,2.7,2.7v55.5
		c0,3-2.4,5.5-5.5,5.5H99c-1.5,0-2.6,1.2-2.6,2.6v2.3c0,0.5,0.4,1,1,1H119h3.3h16.2c0.5,0,1-0.4,1-1v-2.3c0-1.5-1.2-2.6-2.6-2.6
		h-10.2c-2.4,0-4.4-1.9-4.4-4.4v-58.3c0-0.5,0.4-1,1-1h48.5c1.3,0,2.4,0.8,2.9,1.9l17.9,44.7c8.9,22.9,30,23.2,30.9,23.2h5.5
		c0.5,0,1-0.4,1-1v-2c0-2-1.6-3.6-3.6-3.6h-2.9C222.7,234.7,205.8,234.3,198.6,215.7z M200.7,101.6v39c0,0.3-0.1,0.5-0.3,0.7
		l-21.5,21.5c-0.5,0.5-1.3,0.3-1.6-0.3l-27.4-68.6c-2.6-6.7-6.3-11.5-10.1-14.9c-0.7-0.6-0.3-1.7,0.6-1.7h35.9
		c0.3,0,0.5,0.1,0.7,0.3l23.4,23.4C200.6,101,200.7,101.3,200.7,101.6z M122.3,78.8c0-0.6,0.6-1.1,1.2-1c5.7,1.3,15.3,5.5,20.3,18.4
		l26.9,67.4c0.3,0.6-0.2,1.3-0.9,1.3h-46.5c-0.5,0-1-0.4-1-1V78.8z"/>
</g>
</svg>
