<?xml version="1.0" encoding="utf-8"?>
<!-- Generator: Adobe Illustrator 18.1.1, SVG Export Plug-In . SVG Version: 6.00 Build 0)  -->
<svg version="1.1" id="Layer_1" xmlns="http://www.w3.org/2000/svg" xmlns:xlink="http://www.w3.org/1999/xlink" x="0px" y="0px"
	 viewBox="0 0 38.3 38.3" enable-background="new 0 0 38.3 38.3" xml:space="preserve">
<g>
	<g>
		<g>
			<path fill="#D33927" d="M19.1,38.3C8.6,38.3,0,29.7,0,19.1S8.6,0,19.1,0s19.1,8.6,19.1,19.1S29.7,38.3,19.1,38.3z M19.1,1.3
				c-9.8,0-17.8,8-17.8,17.8s8,17.8,17.8,17.8s17.8-8,17.8-17.8S28.9,1.3,19.1,1.3z"/>
		</g>
	</g>
	<path fill="#D33927" d="M28.9,24.2h-1.3v-3.9c0-0.3-0.3-0.6-0.6-0.6H11.3c-0.3,0-0.6,0.3-0.6,0.6v3.9H9.4V19c0-0.3,0.3-0.6,0.6-0.6
		h18.4c0.3,0,0.6,0.3,0.6,0.6V24.2z"/>
</g>
</svg>
