<?xml version="1.0" encoding="utf-8"?>
<!-- Generator: Adobe Illustrator 18.1.1, SVG Export Plug-In . SVG Version: 6.00 Build 0)  -->
<svg version="1.1" id="Layer_1" xmlns="http://www.w3.org/2000/svg" xmlns:xlink="http://www.w3.org/1999/xlink" x="0px" y="0px"
	 viewBox="0 0 38.3 38.3" enable-background="new 0 0 38.3 38.3" xml:space="preserve">
<g>
	<g>
		<path fill="#D33927" d="M19.1,38.3C8.6,38.3,0,29.7,0,19.1S8.6,0,19.1,0s19.1,8.6,19.1,19.1S29.7,38.3,19.1,38.3z M19.1,1.3
			c-9.9,0-17.9,8-17.9,17.9S9.3,37,19.1,37S37,29,37,19.1S29,1.3,19.1,1.3z"/>
		<g>
			<path fill="#D33927" d="M24.1,30.1c-0.3,0-0.6-0.3-0.6-0.6V12c0-0.1-0.1-0.1-0.1-0.1H17c-1.8,0-2.6-0.9-3.7-2.3
				c-0.2-0.3-0.2-0.7,0.1-0.9c0.3-0.2,0.7-0.2,0.9,0.1c1,1.3,1.5,1.8,2.7,1.8h6.3c0.8,0,1.4,0.6,1.4,1.4v17.5
				C24.7,29.9,24.4,30.1,24.1,30.1z"/>
			<path fill="#D33927" d="M13.8,30.1c-0.3,0-0.5-0.2-0.6-0.4c-0.1-0.3,0.1-0.7,0.4-0.8l12.1-4.2c0.3-0.1,0.7,0.1,0.8,0.4
				c0.1,0.3-0.1,0.7-0.4,0.8L14,30.1C14,30.1,13.9,30.1,13.8,30.1z"/>
		</g>
	</g>
</g>
</svg>
