<?xml version="1.0" encoding="utf-8"?>
<!-- Generator: Adobe Illustrator 18.1.1, SVG Export Plug-In . SVG Version: 6.00 Build 0)  -->
<svg version="1.1" id="Layer_1" xmlns="http://www.w3.org/2000/svg" xmlns:xlink="http://www.w3.org/1999/xlink" x="0px" y="0px"
	 viewBox="0 0 38.5 38.5" enable-background="new 0 0 38.5 38.5" xml:space="preserve">
<g>
	<path fill="#D33927" d="M19.2,38.5C8.6,38.5,0,29.8,0,19.2C0,8.6,8.6,0,19.2,0s19.2,8.6,19.2,19.2C38.5,29.8,29.8,38.5,19.2,38.5z
		 M19.2,1.3c-9.9,0-17.9,8-17.9,17.9s8,17.9,17.9,17.9c9.9,0,17.9-8,17.9-17.9S29.1,1.3,19.2,1.3z"/>
	<path fill="#D33927" d="M29,24.4h-1.3v-8.7c0-0.5-0.4-0.9-0.9-0.9H11.7c-0.5,0-0.9,0.4-0.9,0.9v8.7H9.4v-10c0-0.5,0.4-0.9,0.9-0.9
		h17.7c0.5,0,0.9,0.4,0.9,0.9V24.4z"/>
</g>
</svg>
