<?xml version="1.0" encoding="utf-8"?>
<!-- Generator: Adobe Illustrator 18.1.1, SVG Export Plug-In . SVG Version: 6.00 Build 0)  -->
<svg version="1.1" id="Layer_1" xmlns="http://www.w3.org/2000/svg" xmlns:xlink="http://www.w3.org/1999/xlink" x="0px" y="0px"
	 viewBox="0 0 39.1 39.1" enable-background="new 0 0 39.1 39.1" xml:space="preserve">
<path fill="#D33927" d="M19.5,39.1c-5.2,0-10.1-2-13.8-5.7c-7.6-7.6-7.6-20,0-27.6C9.4,2,14.3,0,19.5,0c5.2,0,10.1,2,13.8,5.7
	c7.6,7.6,7.6,20,0,27.6C29.7,37,24.7,39.1,19.5,39.1z M19.5,1.3c-4.9,0-9.5,1.9-12.9,5.4c-7.1,7.1-7.1,18.7,0,25.9
	c3.5,3.5,8,5.4,12.9,5.4c4.9,0,9.5-1.9,12.9-5.4c7.1-7.1,7.1-18.7,0-25.9C29,3.2,24.4,1.3,19.5,1.3z"/>
<path fill="#D33927" d="M20.8,8.2v1.3c4.8,0.5,8.6,4.6,8.6,9.6s-3.8,9-8.6,9.6v1.3c5.5-0.5,9.8-5.2,9.8-10.8S26.3,8.7,20.8,8.2z"/>
<polygon fill="#D33927" points="18.8,28.6 15.4,28.6 9.8,23 9.8,15 15.4,9.4 18.8,9.4 18.8,8.1 14.9,8.1 8.5,14.5 8.5,23.5 
	14.9,29.9 18.8,29.9 "/>
</svg>
